<?xml version="1.0" encoding="UTF-8"?>
<svg version="1.1" xmlns="http://www.w3.org/2000/svg" width="512" height="512">
<path d="M0 0 C168.96 0 337.92 0 512 0 C512 168.96 512 337.92 512 512 C343.04 512 174.08 512 0 512 C0 343.04 0 174.08 0 0 Z " fill="none" transform="translate(0,0)"/>
<path d="M0 0 C1.13308594 -0.03738281 2.26617187 -0.07476562 3.43359375 -0.11328125 C13.53595905 0.43810739 22.50276885 5.61433708 30.9375 10.75 C31.97132813 11.36617187 33.00515625 11.98234375 34.0703125 12.6171875 C36.2042593 13.88974846 38.33545801 15.16692911 40.46386719 16.44873047 C44.25439969 18.72866469 48.06188472 20.97894728 51.87207031 23.22583008 C53.67712289 24.29035247 55.48114817 25.35661857 57.28417969 26.42456055 C62.91295883 29.75818242 68.5602916 33.05797426 74.21923828 36.34008789 C84.71294811 42.42933965 95.11676504 48.65029073 105.47555542 54.96499634 C118.14484536 62.68768323 130.90182041 70.25651828 143.71484375 77.73828125 C153.11695035 83.23505721 162.43382089 88.86643671 171.73471069 94.53231812 C181.85675881 100.69651861 192.0291786 106.77062572 202.24169922 112.78369141 C237.45662112 133.54780279 237.45662112 133.54780279 242.5625 146.3125 C244.87871997 156.14827918 244.33346703 166.97767444 239.0859375 175.79296875 C231.83046173 185.68228162 221.00954757 191.1685608 210.625 197.25 C209.18968788 198.09546035 207.75471493 198.94149673 206.32006836 199.78808594 C204.14447659 201.0719081 201.96874097 202.35547407 199.79200745 203.63735962 C193.38277922 207.41233533 186.99947632 211.22908908 180.625 215.0625 C179.62436523 215.66360596 178.62373047 216.26471191 177.59277344 216.8840332 C174.58226328 218.69282611 171.57230614 220.50253588 168.5625 222.3125 C164.33393 224.85516095 160.10485888 227.39698369 155.875 229.9375 C154.83327637 230.56317871 153.79155273 231.18885742 152.71826172 231.83349609 C145.19569291 236.34609455 137.64447485 240.80826534 130.08349609 245.25610352 C123.1201999 249.36431098 116.21143062 253.55899734 109.31030273 257.77032471 C99.50405587 263.75425128 89.64856313 269.62287684 79.65112305 275.28417969 C72.9705214 279.06735186 66.37643962 282.97437508 59.81005859 286.95166016 C34.0644121 302.53999749 34.0644121 302.53999749 23.4375 308.625 C22.5259314 309.15673828 22.5259314 309.15673828 21.59594727 309.69921875 C12.59452179 314.78405167 2.68946208 315.7309804 -7.4375 314.3125 C-14.16314099 312.12904 -19.91266967 308.82713696 -24.4375 303.3125 C-25.118125 302.590625 -25.79875 301.86875 -26.5 301.125 C-30.43944359 295.40645285 -33.55344053 287.95329022 -33.57451439 280.96321201 C-33.57958893 280.06940659 -33.58466347 279.17560117 -33.58989179 278.25471073 C-33.59038955 277.27166098 -33.59088731 276.28861123 -33.59140015 275.27577209 C-33.5957824 274.23220265 -33.60016465 273.18863321 -33.6046797 272.11344045 C-33.61808724 268.59914406 -33.62425104 265.08487276 -33.63037109 261.57055664 C-33.63827069 259.05759568 -33.64653955 256.54463586 -33.65515137 254.03167725 C-33.67912724 246.47626413 -33.69430461 238.92085225 -33.70721143 231.3654131 C-33.71092423 229.23028762 -33.71489741 227.09516278 -33.7189641 224.96003795 C-33.74420734 211.69401017 -33.76625507 198.42798135 -33.77869225 185.16193485 C-33.78162184 182.08899494 -33.78458351 179.01605506 -33.78759766 175.94311523 C-33.78871673 174.79749958 -33.78871673 174.79749958 -33.78985842 173.62874018 C-33.80249906 161.26973529 -33.83570424 148.91087469 -33.87739949 136.55193717 C-33.91988278 123.85496397 -33.94339486 111.15806448 -33.94861281 98.46102041 C-33.95202028 91.33555417 -33.96369611 84.21031318 -33.99671555 77.08491707 C-34.02775187 70.37651363 -34.03309714 63.66857021 -34.02133179 56.96008301 C-34.02111129 54.50273108 -34.02939676 52.04536082 -34.04698563 49.58807182 C-34.15814782 33.15852699 -33.85938326 20.88678625 -21.91796875 8.4453125 C-15.54928128 2.96924422 -8.3403602 0.17666315 0 0 Z " fill="#3B597C" transform="translate(112.4375,100.6875)"/>
<path d="M0 0 C0 14.52 0 29.04 0 44 C4.62 44 9.24 44 14 44 C16.96945252 44.13345854 19.91401078 44.28132415 22.875 44.5 C23.57496094 44.54769531 24.27492188 44.59539062 24.99609375 44.64453125 C26.66435726 44.75879587 28.33223271 44.87870783 30 45 C30.02291903 76.68600662 30.04056414 108.37201084 30.05106533 140.05802384 C30.05231571 143.81716565 30.05361007 147.57630744 30.05493164 151.33544922 C30.05532511 152.45779662 30.05532511 152.45779662 30.05572652 153.60281771 C30.06005235 165.64450731 30.06792252 177.68619203 30.0771528 189.72787875 C30.0865759 202.12652903 30.09207372 214.5251768 30.09408849 226.92383051 C30.09544595 234.54583289 30.09969809 242.16782147 30.10791647 249.7898196 C30.11393582 255.68021139 30.1144375 261.57059476 30.11310768 267.460989 C30.11337803 269.84380871 30.11530149 272.22662905 30.11920547 274.60944557 C30.1479651 293.10383299 29.57822763 311.49671571 29 330 C-33.37 330 -95.74 330 -160 330 C-160.66 331.65 -161.32 333.3 -162 335 C-167.73527064 341.61550403 -175.38187734 345.68558129 -184 347 C-197.57886996 347.75117153 -207.75384899 346.130928 -219 338 C-221.02398335 336.08039247 -222.41468769 334.32512472 -224 332 C-224 331.34 -224 330.68 -224 330 C-233.9 330 -243.8 330 -254 330 C-251.09704455 327.09704455 -248.59744195 325.45287566 -245.06640625 323.41015625 C-244.48101578 323.06951645 -243.89562531 322.72887665 -243.29249573 322.37791443 C-242.03692171 321.64788432 -240.78014184 320.91992493 -239.52227783 320.19384766 C-236.21656606 318.28551437 -232.91959942 316.36215833 -229.62109375 314.44140625 C-228.63622986 313.86883591 -228.63622986 313.86883591 -227.63146973 313.28469849 C-222.10222472 310.06794879 -216.60473754 306.80042077 -211.125 303.5 C-210.33706055 303.02602783 -209.54912109 302.55205566 -208.73730469 302.0637207 C-205.73090659 300.25346769 -202.7266818 298.4396573 -199.72412109 296.62304688 C-198.26365402 295.73945635 -196.80273938 294.85660504 -195.34130859 293.97460938 C-194.02661597 293.18104762 -192.71306397 292.38559189 -191.40087891 291.58789062 C-187.11240912 289 -187.11240912 289 -186 289 C-185.505 296.425 -185.505 296.425 -185 304 C-183.77990234 302.89205078 -183.77990234 302.89205078 -182.53515625 301.76171875 C-173.60598332 293.79850554 -164.24715052 287.15742936 -154 281 C-153.2992334 280.57477051 -152.5984668 280.14954102 -151.87646484 279.71142578 C-133.55547919 268.70868192 -113.57160219 260.69642067 -93 255 C-92.22253418 254.78005371 -91.44506836 254.56010742 -90.64404297 254.33349609 C-79.47913473 251.23478505 -68.22878994 249.29025316 -56.75 247.75 C-55.5630957 247.58677246 -54.37619141 247.42354492 -53.15332031 247.25537109 C-40.71109648 245.70050708 -28.67120119 245.50684805 -16 245 C-16 169.43 -16 93.86 -16 16 C-72.25704911 18.34404371 -128.89973912 30.00452587 -172 69 C-175.62276315 67.6744419 -178.63505348 66.05653045 -181.8125 63.875 C-182.99779297 63.06675781 -182.99779297 63.06675781 -184.20703125 62.2421875 C-184.79871094 61.83226562 -185.39039063 61.42234375 -186 61 C-184.66410429 57.92953814 -183.33739388 56.18078797 -180.68359375 54.15234375 C-180.01134766 53.63542969 -179.33910156 53.11851562 -178.64648438 52.5859375 C-177.91751953 52.04195312 -177.18855469 51.49796875 -176.4375 50.9375 C-175.67373047 50.36386719 -174.90996094 49.79023438 -174.12304688 49.19921875 C-141.77380708 25.16987382 -104.12472258 7.66055318 -64 2 C-62.93894043 1.8455542 -62.93894043 1.8455542 -61.85644531 1.68798828 C-41.43211005 -1.11162285 -20.53512002 -0.13079694 0 0 Z " fill="#467883" transform="translate(405,83)"/>
<path d="M0 0 C10.30689713 3.97575611 19.77298632 10.5653029 29.17382812 16.28320312 C34.08564198 19.26695183 39.01109948 22.22791634 43.9375 25.1875 C44.96439941 25.80544434 45.99129883 26.42338867 47.04931641 27.06005859 C52.92883675 30.58920944 58.82934558 34.07734505 64.7578125 37.5234375 C65.40913651 37.90262833 66.06046051 38.28181915 66.73152161 38.67250061 C69.90253936 40.51820219 73.07633798 42.35874775 76.25561523 44.19018555 C94.72520581 54.8864906 94.72520581 54.8864906 97 61 C97.81426566 65.89484695 97.60203448 68.86785551 95.234375 73.3203125 C91.25424634 78.55547466 85.38199707 81.33197697 79.75 84.5 C78.53687218 85.19745355 77.32472887 85.89662206 76.11352539 86.59741211 C73.62511706 88.0363086 71.13323447 89.46889985 68.63916016 90.89794922 C63.1871483 94.03357158 57.81677929 97.30427488 52.4375 100.5625 C42.64380585 106.46438024 32.77205442 112.21775647 22.85131836 117.90258789 C17.20504508 121.1391132 11.59960112 124.42310667 6.05639648 127.83374023 C1.31063889 130.5252378 -3.38783875 130.68413747 -8.625 129.3125 C-12.70488795 127.05782508 -15.51839895 124.44480314 -17 120 C-17.09701868 118.5035343 -17.13916665 117.0031718 -17.14717102 115.50358582 C-17.15432632 114.58257584 -17.16148163 113.66156586 -17.16885376 112.71264648 C-17.17154266 111.70427734 -17.17423157 110.6959082 -17.17700195 109.65698242 C-17.18357315 108.59328934 -17.19014435 107.52959625 -17.19691467 106.43367004 C-17.21665326 102.90760226 -17.22831083 99.38157705 -17.23828125 95.85546875 C-17.24235678 94.65212702 -17.2464323 93.44878529 -17.25063133 92.20897865 C-17.27149325 85.8413879 -17.28579516 79.47381871 -17.29516602 73.10620117 C-17.30623793 66.52531814 -17.34064696 59.94477254 -17.38033772 53.3640089 C-17.40646396 48.30682236 -17.41485427 43.24971675 -17.41844749 38.19246864 C-17.4233228 35.7663679 -17.43496347 33.340271 -17.45348549 30.91423607 C-17.47779381 27.51961769 -17.47692678 24.12587967 -17.4699707 20.73120117 C-17.48278076 19.72890472 -17.49559082 18.72660828 -17.50878906 17.69393921 C-17.46584172 11.94519239 -16.91626379 8.52079614 -13 4 C-8.60116356 0.285427 -5.71915512 -0.92244437 0 0 Z " fill="#539E8F" transform="translate(169,193)"/>
<path d="M0 0 C4.62 0 9.24 0 14 0 C14 72.6 14 145.2 14 220 C-8.77 220.33 -31.54 220.66 -55 221 C-73.59149129 222.49515912 -73.59149129 222.49515912 -92 225 C-92.97546783 225.15822235 -92.97546783 225.15822235 -93.97064209 225.31964111 C-122.04197419 229.91444818 -152.18229921 237.03688705 -177.55078125 250.328125 C-178.68902344 250.87984375 -179.82726562 251.4315625 -181 252 C-181.66 251.67 -182.32 251.34 -183 251 C-139.15394757 222.02578563 -94.28638708 207.01548078 -42 202 C-40.84242188 201.8865625 -39.68484375 201.773125 -38.4921875 201.65625 C-25.62548555 200.60112182 -12.99921785 201 0 201 C0 134.67 0 68.34 0 0 Z " fill="#539E8F" transform="translate(405,144)"/>
<path d="M0 0 C0 4.62 0 9.24 0 14 C-53.46 14 -106.92 14 -162 14 C-116.93032117 -8.53483941 -48.79164101 -2.29994267 0 0 Z " fill="#539E8F" transform="translate(417,381)"/>
<path d="M0 0 C0.87140625 -0.03738281 1.7428125 -0.07476562 2.640625 -0.11328125 C7.15223525 -0.17517834 9.12781989 -0.08460038 12.859375 2.671875 C14.75 5.375 14.75 5.375 14.75 9 C13.44622599 13.40023728 13.44622599 13.40023728 10.75 15.375 C8.15649414 15.75976562 8.15649414 15.75976562 5.03515625 15.78125 C3.884104 15.80082764 2.73305176 15.82040527 1.54711914 15.84057617 C0.31469482 15.85193604 -0.91772949 15.8632959 -2.1875 15.875 C-35.45641483 16.66514997 -63.89082896 26.14872647 -93.25 41.375 C-87.08785425 26.46328818 -64.21937702 16.12643768 -50.32568359 10.22265625 C-34.11005478 3.60060694 -17.46205033 0.28928095 0 0 Z " fill="#539E8F" transform="translate(356.25,127.625)"/>
<path d="M0 0 C1.11503906 -0.02578125 2.23007812 -0.0515625 3.37890625 -0.078125 C6.75562669 0.28412853 8.12703327 0.78402108 10.4375 3.25 C10.93359375 5.1875 10.93359375 5.1875 10.875 7.25 C10.87371094 7.930625 10.87242187 8.61125 10.87109375 9.3125 C10.28973073 11.91030234 9.58624448 12.66579384 7.4375 14.25 C4.44506836 14.55883789 4.44506836 14.55883789 0.77734375 14.47265625 C0.11908096 14.46294296 -0.53918182 14.45322968 -1.21739197 14.44322205 C-2.62541737 14.42213574 -4.03336155 14.39488948 -5.44116211 14.36206055 C-9.07636323 14.27956241 -12.71165036 14.24655411 -16.34765625 14.22265625 C-17.41700912 14.2154808 -17.41700912 14.2154808 -18.50796509 14.2081604 C-26.62337698 14.19066902 -34.55488869 15.00437157 -42.5625 16.25 C-34.43720555 7.41089463 -23.10395818 3.48605002 -11.5625 1.25 C-10.76070313 1.06695312 -9.95890625 0.88390625 -9.1328125 0.6953125 C-6.06274679 0.16341662 -3.11526092 0.04331765 0 0 Z " fill="#4E8E8A" transform="translate(359.5625,185.75)"/>
<path d="M0 0 C0.66 0.33 1.32 0.66 2 1 C-0.41556126 4.19199167 -2.68003538 6.74716687 -6 9 C-6 6 -6 6 -4.6875 4.39453125 C-4.130625 3.87246094 -3.57375 3.35039062 -3 2.8125 C-2.443125 2.28269531 -1.88625 1.75289062 -1.3125 1.20703125 C-0.6628125 0.60955078 -0.6628125 0.60955078 0 0 Z " fill="#6B9694" transform="translate(270,160)"/>
<path d="M0 0 C0.66 0.33 1.32 0.66 2 1 C0.68 1.99 -0.64 2.98 -2 4 C-1.34 2.68 -0.68 1.36 0 0 Z M-4 5 C-3.34 5.66 -2.68 6.32 -2 7 C-3.65 7.66 -5.3 8.32 -7 9 C-6.01 7.68 -5.02 6.36 -4 5 Z " fill="#4F8785" transform="translate(274,157)"/>
</svg>
